<svg width="245" height="574" viewBox="0 0 245 574" fill="none" xmlns="http://www.w3.org/2000/svg">
<path d="M168.839 131.728C168.839 131.728 174.339 121.028 178.939 126.028C183.539 131.128 179.539 149.928 162.439 153.228C162.439 153.228 169.039 138.728 168.839 131.728Z" fill="#FFEAD0" stroke="#936464" stroke-miterlimit="10"/>
<path d="M222.639 273.028C217.739 254.528 209.139 244.228 202.639 238.628C197.639 234.328 193.839 233.028 193.839 233.028C193.239 233.128 192.739 233.228 192.139 233.428C173.639 226.328 149.539 225.628 143.839 221.728C135.739 216.228 137.739 187.228 137.739 187.228C130.339 191.528 123.739 193.528 121.639 194.128C119.539 193.528 112.939 191.528 105.539 187.228C105.539 187.228 107.539 216.128 99.4394 221.728C93.0394 226.128 67.5394 224.528 50.8394 233.128C50.7394 233.128 50.6394 233.128 50.5394 233.128C50.5394 233.128 30.4394 240.528 21.7394 273.128C15.0394 298.528 1.33937 401.728 2.83937 406.928C4.33937 412.228 18.5394 420.728 30.8394 410.328C41.7394 401.128 47.0394 316.328 48.0394 298.028C48.1394 298.128 48.1394 298.228 48.2394 298.328H121.039H122.339H182.439L194.139 288.428C195.239 292.228 196.139 294.528 196.139 294.528C196.139 294.528 201.239 400.028 213.539 410.328C225.839 420.728 240.039 412.228 241.539 406.928C243.039 401.628 229.439 298.428 222.639 273.028Z" fill="#FFEAD0" stroke="#936464" stroke-miterlimit="10"/>
<path d="M121.739 70.5279C77.7394 65.8279 68.0394 93.7279 68.0394 93.7279C68.0394 93.7279 73.8394 148.028 85.2394 168.128C96.6394 188.228 121.739 194.328 121.739 194.328C121.739 194.328 146.839 188.228 158.239 168.128C169.639 148.028 175.439 93.7279 175.439 93.7279C175.439 93.7279 165.739 65.8279 121.739 70.5279Z" fill="#FFEAD0" stroke="#936464" stroke-miterlimit="10"/>
<path d="M137.639 191.528C137.739 188.828 137.839 187.128 137.839 187.128C130.439 191.428 123.839 193.428 121.739 194.028C119.639 193.428 113.039 191.428 105.639 187.128C105.639 187.128 105.739 188.828 105.839 191.528C114.339 196.328 121.739 198.128 121.739 198.128C121.739 198.128 129.039 196.328 137.639 191.528Z" fill="#FFEEDB"/>
<path d="M137.539 193.728C137.539 189.828 137.739 187.128 137.739 187.128C130.339 191.428 123.739 193.428 121.639 194.028C119.539 193.428 112.939 191.428 105.539 187.128C105.539 187.128 105.739 189.828 105.739 193.728C114.239 198.528 121.539 200.328 121.539 200.328C121.539 200.328 129.039 198.528 137.539 193.728Z" fill="#FFEEDB"/>
<path d="M192.839 410.428C189.039 381.728 195.039 350.028 200.739 319.128C204.239 300.128 201.639 290.028 198.839 284.828C198.839 284.728 198.839 284.528 198.739 284.428C198.739 284.428 198.339 283.828 197.439 282.728C195.939 280.728 194.739 280.028 194.739 280.028C187.239 273.428 167.239 261.628 119.639 261.128C46.1393 262.528 42.8394 284.328 42.8394 284.328C42.7394 285.228 42.5394 286.128 42.4394 287.028C40.6394 292.728 39.2394 302.528 41.8394 319.028C46.6394 350.028 62.6394 381.728 58.9394 410.428C58.3394 415.128 57.3394 420.028 56.0394 425.028C52.9394 430.128 50.4394 433.028 50.4394 433.028C51.0394 433.828 52.0393 434.528 53.1393 435.128C46.3393 457.428 39.3394 534.628 39.3394 543.728C39.3394 543.728 64.1394 556.928 119.839 558.128V558.228C121.239 558.228 122.639 558.228 124.039 558.228C125.439 558.228 126.839 558.228 128.239 558.228V558.128C184.039 556.928 213.539 543.728 213.539 543.728C213.739 531.328 196.639 439.128 192.839 410.428Z" fill="white" stroke="#936464" stroke-width="2" stroke-miterlimit="10"/>
<path d="M125.639 261.128C125.639 261.128 127.539 256.228 133.639 258.428C139.639 260.728 141.339 261.928 144.639 261.128C147.939 260.328 151.339 259.428 154.139 261.428C157.039 263.328 158.539 264.728 162.039 264.128C165.539 263.528 170.439 267.728 170.439 267.728C170.439 267.728 158.439 327.328 164.039 405.128C169.639 483.028 180.639 557.728 179.639 560.728C178.639 563.828 149.539 571.928 140.939 568.928C132.239 565.828 123.639 566.728 111.339 569.628C99.1394 572.528 80.7394 573.828 76.7394 569.628C72.6394 565.428 61.2394 561.828 50.3394 561.828C39.5394 561.828 31.0394 550.928 34.7394 543.928C38.4394 536.928 55.9393 427.628 50.6393 391.928C45.3393 356.228 39.2394 304.128 42.0394 298.328C44.8394 292.528 55.5394 303.728 66.2394 291.528C76.9394 279.328 90.7394 284.228 103.939 281.128C117.239 277.828 120.839 270.128 125.639 261.128Z" fill="white" stroke="#936464" stroke-width="2" stroke-miterlimit="10"/>
<path d="M99.2394 86.128C99.2394 86.128 106.239 120.028 151.239 118.928C151.239 118.928 126.639 116.128 117.439 103.228C117.439 103.228 131.039 113.728 147.739 116.628C164.339 119.528 168.739 129.128 168.039 139.128C168.039 139.128 183.539 106.428 177.839 73.828C172.139 41.128 150.839 29.828 115.139 30.528C79.4394 31.328 34.2394 69.328 76.5394 143.028C76.5394 143.028 71.3394 121.228 77.5394 111.728C83.5394 102.228 96.5394 94.728 99.2394 86.128Z" fill="#895959"/>
<path d="M72.7394 130.928C72.7394 130.928 67.2393 120.228 62.6393 125.228C58.0393 130.328 62.0393 149.128 79.1393 152.428C79.1393 152.428 75.3394 138.228 72.7394 130.928Z" fill="#FFEAD0" stroke="#936464" stroke-miterlimit="10"/>
<path d="M137.739 131.128C137.439 130.928 141.739 124.128 147.839 124.628C153.939 125.128 158.539 130.528 158.539 130.528C158.539 130.528 148.139 138.728 137.739 131.128Z" fill="white"/>
<path d="M139.839 129.028C139.839 129.028 138.839 130.828 140.639 132.628C140.639 132.628 137.939 131.628 138.139 130.928C138.239 130.328 139.839 129.028 139.839 129.028Z" fill="#FAC996"/>
<path d="M134.239 121.128C134.239 121.128 134.639 117.428 141.739 115.428C147.339 113.828 157.139 114.828 162.439 120.828C162.439 120.828 162.739 121.028 162.039 120.728C161.339 120.428 155.139 116.828 147.539 117.228C138.239 117.728 134.139 123.428 134.239 121.128Z" fill="#493737"/>
<path d="M143.339 125.528C142.639 126.428 142.239 127.628 142.239 128.828C142.239 131.928 144.739 134.428 147.839 134.428C150.939 134.428 153.439 131.928 153.439 128.828C153.439 127.428 152.939 126.228 152.139 125.228C148.439 123.728 145.339 124.528 143.339 125.528Z" fill="#493737"/>
<path d="M138.439 131.328C138.339 131.328 142.639 125.828 148.439 126.428C154.239 127.028 156.739 131.028 156.739 131.028C156.739 131.028 153.339 124.128 148.439 124.228C143.539 124.328 138.739 128.428 138.239 131.328" fill="#E6E7E8"/>
<path d="M150.639 127.428C150.639 128.328 149.939 129.128 148.939 129.128C148.039 129.128 147.239 128.428 147.239 127.428C147.239 126.528 147.939 125.728 148.939 125.728C149.839 125.728 150.639 126.528 150.639 127.428Z" fill="white"/>
<path d="M149.839 130.128C149.839 130.428 149.639 130.628 149.339 130.628C149.039 130.628 148.839 130.428 148.839 130.128C148.839 129.928 149.039 129.628 149.339 129.628C149.639 129.628 149.839 129.828 149.839 130.128Z" fill="white"/>
<path d="M161.339 127.328C157.239 131.028 156.339 124.928 149.039 123.828C143.439 123.028 139.439 127.928 137.939 130.328C137.539 130.828 137.339 131.228 137.239 131.428C137.239 131.528 137.139 131.528 137.139 131.528L137.839 131.728C139.139 132.528 142.439 134.228 146.239 134.328C146.239 134.328 139.639 133.128 138.539 130.928C141.039 127.028 143.339 125.928 144.739 125.428H144.839C145.139 125.328 145.339 125.328 145.639 125.228C146.239 125.128 146.939 125.028 147.539 125.028C152.539 125.128 155.539 128.928 156.639 130.628C156.339 131.028 154.739 133.328 149.739 134.128C149.739 134.128 154.639 133.728 157.739 131.228C160.939 130.328 161.339 127.328 161.339 127.328Z" fill="#493737"/>
<path d="M155.839 127.428C155.839 127.428 159.139 128.228 160.839 125.728C160.839 125.728 159.839 128.328 157.139 128.528L155.839 127.428Z" fill="#493737"/>
<path d="M111.939 168.428C111.939 168.428 122.439 169.028 123.039 169.028C123.539 169.028 137.139 167.428 135.339 169.728C133.539 171.928 125.939 174.928 120.939 174.828C115.939 174.728 111.939 171.628 111.939 171.628L110.339 169.028L111.939 168.428Z" fill="white"/>
<path d="M107.439 121.228C107.439 121.228 107.739 118.128 100.539 116.128C94.7394 114.528 84.7394 115.528 79.4394 121.628C79.4394 121.628 79.1394 121.828 79.8394 121.528C80.5394 121.228 87.2394 116.828 94.8394 117.828C103.539 119.028 107.439 122.828 107.439 121.228Z" fill="#493737"/>
<path d="M104.639 131.328C104.939 131.128 100.539 124.128 94.3394 124.628C88.1394 125.128 83.4394 130.728 83.4394 130.728C83.4394 130.728 94.0393 139.128 104.639 131.328Z" fill="white"/>
<path d="M98.9394 125.628C99.6394 126.628 100.039 127.728 100.039 129.028C100.039 132.228 97.4394 134.728 94.3394 134.728C91.1394 134.728 88.6393 132.128 88.6393 129.028C88.6393 127.628 89.1394 126.428 89.9394 125.428C93.7394 123.828 96.9394 124.628 98.9394 125.628Z" fill="#493737"/>
<path d="M103.939 131.528C104.039 131.528 99.6394 125.828 93.7394 126.528C87.8394 127.128 85.2394 131.228 85.2394 131.228C85.2394 131.228 88.7394 124.228 93.7394 124.228C98.7394 124.328 103.639 128.528 104.239 131.528" fill="#E6E7E8"/>
<path d="M91.5394 127.528C91.5394 128.428 92.3394 129.228 93.2394 129.228C94.1394 129.228 94.9394 128.428 94.9394 127.528C94.9394 126.628 94.1394 125.828 93.2394 125.828C92.2394 125.828 91.5394 126.628 91.5394 127.528Z" fill="white"/>
<path d="M92.2394 130.328C92.2394 130.628 92.4394 130.828 92.7394 130.828C93.0394 130.828 93.2394 130.628 93.2394 130.328C93.2394 130.028 93.0394 129.828 92.7394 129.828C92.4394 129.828 92.2394 130.028 92.2394 130.328Z" fill="white"/>
<path d="M80.5394 127.428C84.7394 131.228 85.6393 124.928 93.1393 123.828C98.9393 122.928 102.939 128.028 104.439 130.428C104.839 130.928 105.039 131.328 105.139 131.528C105.139 131.628 105.239 131.628 105.239 131.628L104.539 131.928C103.139 132.728 99.8394 134.428 96.0394 134.628C96.0394 134.628 102.739 133.428 103.939 131.128C101.439 127.128 99.0393 126.028 97.6393 125.528H97.5394C97.2394 125.428 96.9394 125.428 96.7394 125.328C96.1394 125.228 95.4394 125.128 94.7394 125.128C89.6394 125.228 86.5394 129.128 85.4394 130.828C85.7394 131.328 87.4394 133.528 92.5394 134.428C92.5394 134.428 87.5394 134.028 84.4394 131.528C80.9394 130.528 80.5394 127.428 80.5394 127.428Z" fill="#493737"/>
<path d="M136.739 166.928C130.639 168.228 124.739 164.628 123.439 166.028C122.839 166.628 122.639 166.828 122.439 166.828C122.339 166.728 122.039 166.628 121.439 166.028C120.139 164.628 113.939 168.228 107.839 166.928C106.239 166.628 108.639 168.928 112.839 169.828C117.139 170.828 122.039 170.328 122.339 170.328C123.039 170.428 128.039 170.828 131.839 169.828C136.239 168.828 138.339 166.628 136.739 166.928Z" fill="white"/>
<path d="M137.039 166.928C130.939 168.228 124.839 164.928 123.539 166.328C122.939 166.928 122.739 167.128 122.539 167.128C122.439 167.128 122.139 166.928 121.539 166.328C120.239 164.928 114.039 168.228 107.939 166.928C106.339 166.628 108.739 169.128 112.939 170.128C117.239 171.128 122.139 170.628 122.439 170.628C123.139 170.728 128.139 171.128 131.939 170.128C136.239 169.128 138.539 166.528 137.039 166.928Z" fill="#E55A5A"/>
<path d="M118.839 177.928C118.839 177.928 122.639 179.828 127.139 177.928C127.139 177.928 125.639 180.528 123.039 180.828C120.339 181.028 118.839 177.928 118.839 177.928Z" fill="#FEE1CC"/>
<path d="M129.239 152.528C129.139 152.128 128.939 152.028 128.639 152.128C127.639 152.328 125.839 154.228 124.839 155.328C124.739 155.428 124.539 155.528 124.439 155.628C124.039 155.928 123.639 156.228 123.139 156.428C122.739 156.728 122.239 156.928 121.839 156.928C121.439 156.928 120.939 156.728 120.539 156.528C120.139 156.328 119.639 156.028 119.239 155.728C118.639 155.328 118.139 154.928 117.639 154.628C116.339 153.228 114.539 151.528 114.239 152.928C113.839 154.628 116.939 155.728 118.439 156.228C118.539 156.328 118.639 156.428 118.739 156.528C119.139 156.828 119.639 157.128 120.139 157.428C120.639 157.628 121.139 157.928 121.939 157.928C122.639 157.828 123.139 157.528 123.639 157.228C124.139 156.928 124.539 156.628 124.939 156.228C125.239 156.028 125.439 155.728 125.739 155.528C127.339 154.928 129.539 153.828 129.239 152.528Z" fill="#FFEEDB"/>
<path opacity="0.8" d="M120.939 164.228C120.939 164.228 121.839 165.028 122.539 164.928C123.239 164.828 123.839 164.228 123.839 164.228C123.839 164.228 122.139 164.728 120.939 164.228Z" fill="#F7C39F"/>
<path d="M73.0394 79.9279C72.0394 80.5279 123.539 32.9279 167.139 82.4279C167.139 82.4279 128.439 47.6279 73.0394 79.9279Z" fill="#F69E85"/>
<path d="M159.339 264.528C159.339 264.528 144.739 326.728 151.539 406.828" stroke="#936464" stroke-width="2" stroke-miterlimit="10" stroke-linecap="round" stroke-linejoin="round"/>
<path d="M151.839 410.228C151.839 410.228 152.039 419.728 154.539 428.528Z" fill="#F69E85"/>
<path d="M151.839 410.228C151.839 410.228 152.039 419.728 154.539 428.528" stroke="#936464" stroke-miterlimit="10"/>
<path d="M140.739 261.128C140.739 261.128 131.839 296.128 123.839 349.928C115.839 403.728 96.1393 437.028 85.6393 448.228" stroke="#936464" stroke-width="2" stroke-miterlimit="10" stroke-linecap="round" stroke-linejoin="round"/>
<path d="M67.5394 462.928L76.2394 457.128" stroke="#936464" stroke-width="2" stroke-miterlimit="10" stroke-linecap="round" stroke-linejoin="round"/>
<path d="M115.339 275.728C115.339 275.728 105.339 322.828 85.6393 344.828" stroke="#936464" stroke-width="2" stroke-miterlimit="10" stroke-linecap="round" stroke-linejoin="round"/>
<path d="M110.939 169.528C111.239 169.528 114.739 173.228 122.339 173.728C129.939 174.228 135.039 169.028 135.039 169.028L136.039 168.428C136.039 168.428 130.939 177.628 121.539 177.228C113.539 176.828 109.639 169.028 109.639 169.028L110.939 169.528Z" fill="#E55A5A"/>
<path d="M12.9394 422.028C12.9394 422.028 -8.16063 409.528 5.73937 377.928C19.5394 346.328 53.4394 254.828 54.2394 247.128C55.0394 239.428 33.6394 228.828 29.5394 210.128C25.4394 191.428 32.8393 170.628 32.8393 170.628C32.8393 170.628 33.3394 170.328 33.7394 170.628C34.2394 170.928 34.0394 170.528 34.0394 170.528C34.0394 170.528 35.3393 164.228 36.3393 164.228C37.3393 164.228 38.2394 165.428 38.4394 167.528C38.4394 167.528 41.9393 168.828 42.1393 170.628C42.3393 172.328 42.5394 181.228 42.5394 181.228C42.5394 181.228 43.4394 178.328 44.5394 179.328C45.7394 180.328 45.7394 184.128 45.9394 186.028C46.1394 187.928 46.3394 199.328 54.2394 209.828C62.1394 220.428 78.4394 233.128 76.7394 244.028C75.0394 255.028 69.2394 333.328 52.5394 378.128C35.8394 423.128 25.7394 422.928 12.9394 422.028Z" fill="#FFEAD0" stroke="#936464" stroke-miterlimit="10"/>
<path d="M231.639 422.028C231.639 422.028 252.739 409.528 238.839 377.928C225.039 346.328 191.139 254.828 190.339 247.128C189.539 239.428 210.939 228.828 215.039 210.128C219.139 191.428 211.739 170.628 211.739 170.628C211.739 170.628 211.239 170.328 210.839 170.628C210.339 170.928 210.539 170.528 210.539 170.528C210.539 170.528 209.239 164.228 208.239 164.228C207.239 164.228 206.339 165.428 206.139 167.528C206.139 167.528 202.639 168.828 202.439 170.628C202.239 172.428 202.039 181.228 202.039 181.228C202.039 181.228 200.139 178.728 198.939 179.728C197.739 180.728 198.339 184.128 198.539 186.028C198.739 187.928 198.139 199.328 190.239 209.828C182.339 220.428 166.039 233.128 167.739 244.028C169.439 255.028 175.239 333.328 191.939 378.128C208.739 423.128 218.839 422.928 231.639 422.028Z" fill="#FFEAD0" stroke="#936464" stroke-miterlimit="10"/>
<path d="M35.5394 169.628C35.5394 169.628 34.1394 169.928 34.3394 169.228C34.3394 169.128 36.1394 162.328 36.6394 162.928C37.2394 163.428 35.5394 169.628 35.5394 169.628Z" fill="#EF6262"/>
<path d="M39.4394 171.628C39.4394 171.628 39.9394 165.428 39.5394 165.228C39.1394 165.028 37.5394 171.028 37.5394 171.028C37.5394 171.028 38.1394 171.928 39.4394 171.628Z" fill="#EF6262"/>
<path d="M43.7394 183.628C43.8394 183.628 44.9393 178.228 44.1393 177.728C43.3393 177.228 42.0394 182.828 42.0394 182.828C42.0394 182.828 42.5394 184.028 43.7394 183.628Z" fill="#EF6262"/>
<path d="M31.7394 174.228C31.7394 174.228 32.0393 174.328 32.6393 174.228C33.2393 174.128 33.6394 169.628 33.4394 169.628C33.2394 169.628 31.9394 172.328 31.7394 174.228Z" fill="#EF6262"/>
<path d="M208.239 169.628C208.239 169.628 209.639 169.928 209.439 169.228C209.439 169.128 207.639 162.328 207.139 162.928C206.539 163.428 208.239 169.628 208.239 169.628Z" fill="#EF6262"/>
<path d="M204.339 171.628C204.339 171.628 203.839 165.428 204.239 165.228C204.639 165.028 206.239 171.028 206.239 171.028C206.239 171.028 205.639 171.928 204.339 171.628Z" fill="#EF6262"/>
<path d="M200.039 183.628C199.939 183.628 198.839 178.228 199.639 177.728C200.439 177.228 201.739 182.828 201.739 182.828C201.739 182.828 201.239 184.028 200.039 183.628Z" fill="#EF6262"/>
<path d="M212.039 174.228C212.039 174.228 211.739 174.328 211.139 174.228C210.539 174.128 210.139 169.628 210.339 169.628C210.639 169.528 211.839 172.328 212.039 174.228Z" fill="#EF6262"/>
<path d="M174.039 147.228C174.839 146.428 179.139 126.628 150.539 108.028C121.939 89.3281 118.339 89.0281 114.139 82.5281C109.939 76.0281 110.339 65.8281 110.339 65.8281L175.439 59.0281C175.439 59.0281 188.539 59.6281 193.939 89.8281C200.139 124.628 174.039 147.228 174.039 147.228Z" fill="#FFFBFA" stroke="#936464" stroke-width="2" stroke-miterlimit="10"/>
<path d="M74.7394 151.128C74.7394 151.128 60.9393 103.528 110.339 86.628C143.139 75.428 163.439 74.028 175.439 58.828C175.439 58.828 178.739 25.228 135.539 21.228C135.539 21.228 129.739 0.127994 100.139 1.02799C70.5393 1.92799 49.2394 12.828 39.7394 47.028C30.1394 81.228 48.8393 92.128 48.8393 92.128C48.8393 92.128 35.5394 144.228 74.7394 151.128Z" fill="#FFFBFA" stroke="#936464" stroke-width="2" stroke-miterlimit="10"/>
<path d="M134.239 20.3281C134.239 20.3281 131.139 31.8281 102.139 46.4281C73.2393 61.0281 54.5393 71.9281 48.6393 92.1281" fill="#FFFBFA"/>
<path d="M134.239 20.3281C134.239 20.3281 131.139 31.8281 102.139 46.4281C73.2393 61.0281 54.5393 71.9281 48.6393 92.1281" stroke="#936464" stroke-width="2" stroke-miterlimit="10"/>
<path d="M189.239 125.728C189.239 125.728 193.939 84.4279 156.739 71.1279Z" fill="#FFFBFA"/>
<path d="M189.239 125.728C189.239 125.728 193.939 84.4279 156.739 71.1279" stroke="#936464" stroke-width="2" stroke-miterlimit="10"/>
<path d="M96 190.7C87.6 188.9 87.5 176.4 87.5 176.4C87.5 176.4 87.4 189 78.9 190.7H79.1C87.6 192.4 87.7 205 87.7 205C87.7 205 87.8 192.4 96.3 190.7H96Z" fill="#F7CC63"/>
<path d="M174.6 206.4C170.1 205.4 170 198.7 170 198.7C170 198.7 169.9 205.4 165.4 206.4H165.5C170.1 207.3 170.1 214.1 170.1 214.1C170.1 214.1 170.2 207.4 174.7 206.4H174.6Z" fill="#F7CC63"/>
<path d="M186.9 176.2C182.4 175.2 182.3 168.5 182.3 168.5C182.3 168.5 182.2 175.2 177.7 176.2H177.8C182.4 177.1 182.4 183.9 182.4 183.9C182.4 183.9 182.5 177.2 187 176.2H186.9Z" fill="#F7CC63"/>
<path d="M67.3 183C60.8 181.6 60.7 171.8 60.7 171.8C60.7 171.8 60.6 181.6 54 183H54.1C60.7 184.4 60.8 194.2 60.8 194.2C60.8 194.2 60.9 184.4 67.5 183H67.3Z" fill="#F7CC63"/>
<path d="M184.3 222.9C177.7 221.5 177.7 211.7 177.7 211.7C177.7 211.7 177.6 221.5 171 222.9H171.1C177.7 224.3 177.8 234.1 177.8 234.1C177.8 234.1 177.9 224.3 184.5 222.9H184.3Z" fill="#F7CC63"/>
</svg>
